<svg xmlns="http://www.w3.org/2000/svg" viewBox="0 0 900 650" role="img" aria-labelledby="title desc">
  <title id="title">UI Concept Board</title>
  <desc id="desc">Colorful interface concept with cards and gradients.</desc>
  <defs>
    <linearGradient id="board" x1="0" y1="0" x2="1" y2="1">
      <stop offset="0" stop-color="#111827"/>
      <stop offset="1" stop-color="#312e81"/>
    </linearGradient>
    <linearGradient id="card" x1="0" y1="0" x2="1" y2="1">
      <stop offset="0" stop-color="#f97316"/>
      <stop offset="1" stop-color="#facc15"/>
    </linearGradient>
  </defs>
  <rect width="900" height="650" rx="36" fill="url(#board)"/>
  <rect x="90" y="90" width="300" height="470" rx="24" fill="#0f172a" stroke="#f59e0b" stroke-width="7"/>
  <rect x="120" y="130" width="240" height="120" rx="14" fill="url(#card)"/>
  <rect x="120" y="280" width="240" height="20" rx="8" fill="#f3f4f6"/>
  <rect x="120" y="315" width="170" height="16" rx="8" fill="#9ca3af"/>
  <rect x="120" y="345" width="210" height="16" rx="8" fill="#9ca3af"/>
  <rect x="460" y="90" width="350" height="220" rx="24" fill="#0f172a" stroke="#22d3ee" stroke-width="7"/>
  <circle cx="560" cy="200" r="65" fill="#f97316"/>
  <circle cx="700" cy="200" r="65" fill="#60a5fa"/>
  <rect x="460" y="360" width="350" height="200" rx="24" fill="#0f172a" stroke="#facc15" stroke-width="7"/>
  <rect x="500" y="410" width="270" height="22" rx="10" fill="#f3f4f6"/>
  <rect x="500" y="450" width="200" height="18" rx="9" fill="#9ca3af"/>
  <rect x="500" y="480" width="230" height="18" rx="9" fill="#9ca3af"/>
</svg>
